<svg width="16" height="16" viewBox="0 0 16 16" fill="none" xmlns="http://www.w3.org/2000/svg">
<g clip-path="url(#clip0_261_410)">
<path d="M7.99989 16C12.1727 16 15.5554 12.6173 15.5554 8.44447C15.5554 4.27165 12.1727 0.888916 7.99989 0.888916C3.82707 0.888916 0.444336 4.27165 0.444336 8.44447C0.444336 12.6173 3.82707 16 7.99989 16Z" fill="#F4900C"/>
<path d="M7.99989 15.1111C12.1727 15.1111 15.5554 11.7284 15.5554 7.55556C15.5554 3.38274 12.1727 0 7.99989 0C3.82707 0 0.444336 3.38274 0.444336 7.55556C0.444336 11.7284 3.82707 15.1111 7.99989 15.1111Z" fill="#FFCC4D"/>
<path d="M7.99957 14.2223C11.436 14.2223 14.2218 11.4365 14.2218 8.00005C14.2218 4.56362 11.436 1.77783 7.99957 1.77783C4.56313 1.77783 1.77734 4.56362 1.77734 8.00005C1.77734 11.4365 4.56313 14.2223 7.99957 14.2223Z" fill="#FFE8B6"/>
<path d="M7.99957 13.7777C11.436 13.7777 14.2218 10.9919 14.2218 7.55547C14.2218 4.11904 11.436 1.33325 7.99957 1.33325C4.56313 1.33325 1.77734 4.11904 1.77734 7.55547C1.77734 10.9919 4.56313 13.7777 7.99957 13.7777Z" fill="#FFAC33"/>
<path d="M4.24121 4.82486C4.24121 4.58264 4.47899 4.48575 4.47899 4.48575L7.98032 2.84131L11.515 4.48575C11.515 4.48575 11.7585 4.53998 11.7585 4.82664V5.11153H4.24121V4.82486Z" fill="#FFE8B6"/>
<path d="M11.5239 5.70489C11.5239 5.44533 11.2995 5.23511 11.023 5.23511H4.94615C4.66926 5.23511 4.47637 5.44533 4.47637 5.70489C4.47637 5.88133 4.56704 6.03333 4.71148 6.11377V6.40977H5.65104V6.17466H6.5906V6.40977H7.53015V6.17466H8.46971V6.40977H9.40926V6.17466H10.3488V6.40977H11.2888V6.10177C11.4297 6.01822 11.5239 5.872 11.5239 5.70489ZM12.2284 10.6667C12.2284 10.7601 12.1912 10.8498 12.1251 10.9159C12.059 10.982 11.9694 11.0191 11.8759 11.0191H4.12393C4.03045 11.0191 3.94081 10.982 3.87471 10.9159C3.80862 10.8498 3.77148 10.7601 3.77148 10.6667C3.77148 10.5732 3.80862 10.4835 3.87471 10.4174C3.94081 10.3514 4.03045 10.3142 4.12393 10.3142H11.8764C12.0706 10.3142 12.2284 10.472 12.2284 10.6667Z" fill="#F4900C"/>
<path d="M11.7586 5.42212C11.7586 5.48448 11.7339 5.54428 11.6898 5.58837C11.6457 5.63246 11.5859 5.65723 11.5235 5.65723H4.47598C4.41612 5.65355 4.35992 5.62718 4.31884 5.58349C4.27776 5.5398 4.25488 5.48209 4.25488 5.42212C4.25488 5.36215 4.27776 5.30444 4.31884 5.26075C4.35992 5.21707 4.41612 5.19069 4.47598 5.18701L11.5235 5.18835C11.5543 5.18823 11.5848 5.19419 11.6133 5.20588C11.6418 5.21757 11.6677 5.23476 11.6896 5.25648C11.7114 5.27819 11.7287 5.304 11.7406 5.33242C11.7525 5.36084 11.7586 5.39133 11.7586 5.42212ZM5.41597 5.69501H10.5844V6.22212H5.41597V5.69501Z" fill="#F4900C"/>
<path d="M5.65094 9.25739C5.65094 9.51694 5.51049 9.72716 5.3376 9.72716H5.02427C4.85138 9.72716 4.71094 9.51694 4.71094 9.25739V5.69561C4.71094 5.43605 4.85138 5.22583 5.02427 5.22583H5.3376C5.51049 5.22583 5.65094 5.43605 5.65094 5.69561V9.25739ZM11.2892 9.25739C11.2892 9.51694 11.1492 9.72716 10.9758 9.72716H10.6625C10.4896 9.72716 10.3492 9.51694 10.3492 9.25739V5.69561C10.3492 5.43605 10.4892 5.22583 10.6625 5.22583H10.9758C11.1487 5.22583 11.2892 5.43605 11.2892 5.69561V9.25739ZM7.53049 9.25739C7.53049 9.51694 7.39005 9.72716 7.21716 9.72716H6.90383C6.73094 9.72716 6.59049 9.51694 6.59049 9.25739V5.69561C6.59049 5.43605 6.73094 5.22583 6.90383 5.22583H7.21716C7.39005 5.22583 7.53049 5.43605 7.53049 5.69561V9.25739ZM9.4096 9.25739C9.4096 9.51694 9.26916 9.72716 9.09627 9.72716H8.78338C8.61049 9.72716 8.47005 9.51694 8.47005 9.25739V5.69561C8.47005 5.43605 8.61049 5.22583 8.78338 5.22583H9.09627C9.26916 5.22583 9.4096 5.43605 9.4096 5.69561V9.25739Z" fill="#FFD983"/>
<path d="M11.5241 9.492C11.5241 9.75155 11.3139 9.96177 11.0543 9.96177H4.94634C4.82175 9.96177 4.70226 9.91228 4.61416 9.82418C4.52606 9.73608 4.47656 9.61659 4.47656 9.492C4.47656 9.3674 4.52606 9.24791 4.61416 9.15981C4.70226 9.07171 4.82175 9.02222 4.94634 9.02222H11.0543C11.3135 9.02222 11.5241 9.23244 11.5241 9.492Z" fill="#FFCC4D"/>
<path d="M11.9934 9.96172C11.9934 10.2213 11.7832 10.4315 11.5236 10.4315H4.47564C4.35104 10.4315 4.23155 10.382 4.14345 10.2939C4.05535 10.2058 4.00586 10.0863 4.00586 9.96172C4.00586 9.83713 4.05535 9.71764 4.14345 9.62954C4.23155 9.54144 4.35104 9.49194 4.47564 9.49194H11.5232C11.7827 9.49194 11.9934 9.70217 11.9934 9.96172Z" fill="#FFD983"/>
<path d="M12.2284 10.3141C12.2284 10.4076 12.1912 10.4972 12.1251 10.5633C12.059 10.6294 11.9694 10.6666 11.8759 10.6666H4.12393C4.07765 10.6666 4.03181 10.6574 3.98905 10.6397C3.94629 10.622 3.90744 10.5961 3.87471 10.5633C3.84199 10.5306 3.81602 10.4917 3.79831 10.449C3.7806 10.4062 3.77148 10.3604 3.77148 10.3141C3.77148 10.2678 3.7806 10.222 3.79831 10.1792C3.81602 10.1365 3.84199 10.0976 3.87471 10.0649C3.90744 10.0322 3.94629 10.0062 3.98905 9.9885C4.03181 9.97079 4.07765 9.96167 4.12393 9.96167H11.8764C12.0706 9.96167 12.2284 10.1194 12.2284 10.3141Z" fill="#FFD983"/>
<path d="M11.5241 5.4605C11.5241 5.20094 11.2997 4.99072 11.0232 4.99072H4.94634C4.66945 4.99072 4.47656 5.20094 4.47656 5.4605C4.47656 5.63694 4.56723 5.78895 4.71167 5.86939V6.16539H5.65123V5.93028H6.59079V6.16539H7.53034V5.93028H8.4699V6.16539H9.40945V5.93028H10.349V6.16539H11.289V5.85739C11.4299 5.77383 11.5241 5.62761 11.5241 5.4605Z" fill="#FFCC4D"/>
<path d="M4.24121 5.09464C4.24121 4.85242 4.47899 4.75553 4.47899 4.75553L7.98032 3.11108L11.515 4.75553C11.515 4.75553 11.7585 4.80975 11.7585 5.09642V5.22575H4.24121V5.09464Z" fill="#FFD983"/>
<path d="M7.99967 3.70801C7.99967 3.70801 5.57523 4.85067 5.33345 4.95379C5.09123 5.05645 5.17211 5.22534 5.33389 5.22534H10.6539C10.9037 5.22534 10.8446 5.03467 10.6463 4.93156C10.4481 4.8289 7.99967 3.70801 7.99967 3.70801Z" fill="#FFAC33"/>
<path d="M11.7586 5.22535C11.7586 5.2877 11.7339 5.3475 11.6898 5.39159C11.6457 5.43569 11.5859 5.46046 11.5235 5.46046H4.47598C4.41612 5.45677 4.35992 5.4304 4.31884 5.38671C4.27776 5.34303 4.25488 5.28532 4.25488 5.22535C4.25488 5.16538 4.27776 5.10766 4.31884 5.06398C4.35992 5.02029 4.41612 4.99392 4.47598 4.99023L11.5235 4.99157C11.5543 4.99145 11.5848 4.99741 11.6133 5.0091C11.6418 5.02079 11.6677 5.03798 11.6896 5.0597C11.7114 5.08141 11.7287 5.10722 11.7406 5.13564C11.7525 5.16407 11.7586 5.19455 11.7586 5.22535Z" fill="#FFD983"/>
</g>
<defs>
<clipPath id="clip0_261_410">
<rect width="16" height="16" fill="white"/>
</clipPath>
</defs>
</svg>
