<svg width="32" height="32" viewBox="0 0 32 32" fill="none" xmlns="http://www.w3.org/2000/svg">
<path d="M13.4945 17.4546C13.233 17.8949 13.0936 18.397 13.0908 18.9091C13.0908 19.6807 13.3973 20.4206 13.9429 20.9662C14.4884 21.5117 15.2284 21.8182 15.9999 21.8182C16.7715 21.8182 17.5114 21.5117 18.0569 20.9662C18.6025 20.4206 18.909 19.6807 18.909 18.9091C18.9062 18.397 18.7668 17.8949 18.5054 17.4546H13.4945Z" fill="#2E3731"/>
<path d="M11.6362 15.9999C12.4395 15.9999 13.0907 15.3487 13.0907 14.5454C13.0907 13.742 12.4395 13.0908 11.6362 13.0908C10.8329 13.0908 10.1816 13.742 10.1816 14.5454C10.1816 15.3487 10.8329 15.9999 11.6362 15.9999Z" fill="#2E3731"/>
<path d="M20.3637 15.9999C21.167 15.9999 21.8183 15.3487 21.8183 14.5454C21.8183 13.742 21.167 13.0908 20.3637 13.0908C19.5604 13.0908 18.9092 13.742 18.9092 14.5454C18.9092 15.3487 19.5604 15.9999 20.3637 15.9999Z" fill="#2E3731"/>
<circle cx="16" cy="16" r="15.125" stroke="#2E3731" stroke-width="1.75"/>
</svg>
